<mxfile host="app.diagrams.net" modified="2024-04-27T20:01:17.252Z" agent="Mozilla/5.0 (Windows NT 10.0; Win64; x64) AppleWebKit/537.36 (KHTML, like Gecko) Chrome/124.0.0.0 Safari/537.36" etag="tf8hfVvKZ1oE9XuvpIZW" version="24.3.1" type="device">
  <diagram name="Page-1" id="3rnBCiRVLusEH87E3wuf">
    <mxGraphModel dx="1442" dy="1090" grid="1" gridSize="10" guides="1" tooltips="1" connect="1" arrows="1" fold="1" page="1" pageScale="1" pageWidth="850" pageHeight="1100" math="0" shadow="0">
      <root>
        <mxCell id="0" />
        <mxCell id="1" parent="0" />
        <object placeholders="1" c4Name="Container Market(BolsaX)" c4Type="ContainerScopeBoundary" c4Application="Container" label="&lt;font style=&quot;font-size: 16px&quot;&gt;&lt;b&gt;&lt;div style=&quot;text-align: left&quot;&gt;%c4Name%&lt;/div&gt;&lt;/b&gt;&lt;/font&gt;&lt;div style=&quot;text-align: left&quot;&gt;[%c4Application%]&lt;/div&gt;" id="4d2OGvLoM_RoSxxdBMcG-4">
          <mxCell style="rounded=1;fontSize=11;whiteSpace=wrap;html=1;dashed=1;arcSize=20;fillColor=#d9d9d9;strokeColor=#666666;fontColor=#333333;labelBackgroundColor=none;align=left;verticalAlign=bottom;labelBorderColor=none;spacingTop=0;spacing=10;dashPattern=8 4;metaEdit=1;rotatable=0;perimeter=rectanglePerimeter;noLabel=0;labelPadding=0;allowArrows=0;connectable=0;expand=0;recursiveResize=0;editable=1;pointerEvents=0;absoluteArcSize=1;points=[[0.25,0,0],[0.5,0,0],[0.75,0,0],[1,0.25,0],[1,0.5,0],[1,0.75,0],[0.75,1,0],[0.5,1,0],[0.25,1,0],[0,0.75,0],[0,0.5,0],[0,0.25,0]];" parent="1" vertex="1">
            <mxGeometry x="117" y="20" width="1440" height="780" as="geometry" />
          </mxCell>
        </object>
        <object placeholders="1" c4Name="FIX API" c4Type="ContainerScopeBoundary" c4Application="Container" label="&lt;font style=&quot;font-size: 16px&quot;&gt;&lt;b&gt;&lt;div style=&quot;text-align: left&quot;&gt;%c4Name%&lt;/div&gt;&lt;/b&gt;&lt;/font&gt;&lt;div style=&quot;text-align: left&quot;&gt;[%c4Application%]&lt;/div&gt;" id="K2TG2xPsC1KAzNVLMF0X-1">
          <mxCell style="rounded=1;fontSize=11;whiteSpace=wrap;html=1;dashed=1;arcSize=20;fillColor=#98d5fb;strokeColor=#666666;fontColor=#333333;labelBackgroundColor=none;align=left;verticalAlign=bottom;labelBorderColor=none;spacingTop=0;spacing=10;dashPattern=8 4;metaEdit=1;rotatable=0;perimeter=rectanglePerimeter;noLabel=0;labelPadding=0;allowArrows=0;connectable=0;expand=0;recursiveResize=0;editable=1;pointerEvents=0;absoluteArcSize=1;points=[[0.25,0,0],[0.5,0,0],[0.75,0,0],[1,0.25,0],[1,0.5,0],[1,0.75,0],[0.75,1,0],[0.5,1,0],[0.25,1,0],[0,0.75,0],[0,0.5,0],[0,0.25,0]];" vertex="1" parent="1">
            <mxGeometry x="940" y="30" width="610" height="534" as="geometry" />
          </mxCell>
        </object>
        <object placeholders="1" c4Name="Settlement Market (BolsaX)" c4Type="ContainerScopeBoundary" c4Application="Container Market (BolsaX)" label="&lt;font style=&quot;font-size: 16px&quot;&gt;&lt;b&gt;&lt;div style=&quot;text-align: left&quot;&gt;%c4Name%&lt;/div&gt;&lt;/b&gt;&lt;/font&gt;&lt;div style=&quot;text-align: left&quot;&gt;[%c4Application%]&lt;/div&gt;" id="4d2OGvLoM_RoSxxdBMcG-57">
          <mxCell style="rounded=1;fontSize=11;whiteSpace=wrap;html=1;dashed=1;arcSize=20;fillColor=#e3e3e3;strokeColor=#666666;fontColor=#333333;labelBackgroundColor=none;align=left;verticalAlign=bottom;labelBorderColor=none;spacingTop=0;spacing=10;dashPattern=8 4;metaEdit=1;rotatable=0;perimeter=rectanglePerimeter;noLabel=0;labelPadding=0;allowArrows=0;connectable=0;expand=0;recursiveResize=0;editable=1;pointerEvents=0;absoluteArcSize=1;points=[[0.25,0,0],[0.5,0,0],[0.75,0,0],[1,0.25,0],[1,0.5,0],[1,0.75,0],[0.75,1,0],[0.5,1,0],[0.25,1,0],[0,0.75,0],[0,0.5,0],[0,0.25,0]];" parent="1" vertex="1">
            <mxGeometry x="940" y="580" width="327" height="220" as="geometry" />
          </mxCell>
        </object>
        <object placeholders="1" c4Name="Order&#xa; Engine X" c4Type="Component" c4Technology="BackgroundService/FIX" c4Description="Responsabilidade de comunicação continua Com ExchangeX para o Envio de ordens e recebimento de exectution Report" label="&lt;font style=&quot;font-size: 16px&quot;&gt;&lt;b&gt;%c4Name%&lt;/b&gt;&lt;/font&gt;&lt;div&gt;[%c4Type%: %c4Technology%]&lt;/div&gt;&lt;br&gt;&lt;div&gt;&lt;font style=&quot;font-size: 11px&quot;&gt;%c4Description%&lt;/font&gt;&lt;/div&gt;" id="4d2OGvLoM_RoSxxdBMcG-5">
          <mxCell style="rounded=1;whiteSpace=wrap;html=1;labelBackgroundColor=none;fillColor=#63bef2;fontColor=#ffffff;align=center;arcSize=6;strokeColor=#2086C9;metaEdit=1;resizable=0;points=[[0.25,0,0],[0.5,0,0],[0.75,0,0],[1,0.25,0],[1,0.5,0],[1,0.75,0],[0.75,1,0],[0.5,1,0],[0.25,1,0],[0,0.75,0],[0,0.5,0],[0,0.25,0]];" parent="1" vertex="1">
            <mxGeometry x="412" y="630" width="240" height="120" as="geometry" />
          </mxCell>
        </object>
        <object placeholders="1" c4Name="OrdersX" c4Type="Container" c4Technology="Cosmos/Postgree" c4Description="Responsabilidade de storage&#xa; as ordens e atualizar seus status" label="&lt;font style=&quot;font-size: 11px;&quot;&gt;&lt;b style=&quot;font-size: 11px;&quot;&gt;%c4Name%&lt;/b&gt;&lt;/font&gt;&lt;div style=&quot;font-size: 11px;&quot;&gt;[%c4Type%:&amp;nbsp;%c4Technology%]&lt;/div&gt;&lt;br style=&quot;font-size: 11px;&quot;&gt;&lt;div style=&quot;font-size: 11px;&quot;&gt;&lt;font style=&quot;font-size: 11px&quot;&gt;&lt;font color=&quot;#E6E6E6&quot; style=&quot;font-size: 11px;&quot;&gt;%c4Description%&lt;/font&gt;&lt;/font&gt;&lt;/div&gt;" id="4d2OGvLoM_RoSxxdBMcG-12">
          <mxCell style="shape=cylinder3;size=15;whiteSpace=wrap;html=1;boundedLbl=1;rounded=0;labelBackgroundColor=none;fillColor=#23A2D9;fontSize=11;fontColor=#ffffff;align=center;strokeColor=#0E7DAD;metaEdit=1;points=[[0.5,0,0],[1,0.25,0],[1,0.5,0],[1,0.75,0],[0.5,1,0],[0,0.75,0],[0,0.5,0],[0,0.25,0]];resizable=1;" parent="1" vertex="1">
            <mxGeometry x="137" y="641" width="160" height="100" as="geometry" />
          </mxCell>
        </object>
        <object placeholders="1" c4Type="Relationship" c4Technology="ZeroMQ" c4Description="Envio de ordem" label="&lt;div style=&quot;text-align: left&quot;&gt;&lt;div style=&quot;text-align: center&quot;&gt;&lt;b&gt;%c4Description%&lt;/b&gt;&lt;/div&gt;&lt;div style=&quot;text-align: center&quot;&gt;[%c4Technology%]&lt;/div&gt;&lt;/div&gt;" id="4d2OGvLoM_RoSxxdBMcG-13">
          <mxCell style="endArrow=blockThin;html=1;fontSize=10;fontColor=#404040;strokeWidth=2;endFill=1;strokeColor=#828282;elbow=vertical;metaEdit=1;endSize=14;startSize=14;jumpStyle=arc;jumpSize=16;rounded=1;edgeStyle=orthogonalEdgeStyle;curved=0;exitX=0.75;exitY=0;exitDx=0;exitDy=0;exitPerimeter=0;flowAnimation=1;shadow=1;entryX=0.612;entryY=0.996;entryDx=0;entryDy=0;entryPerimeter=0;" parent="1" source="4d2OGvLoM_RoSxxdBMcG-5" edge="1" target="NAc5xhBlYTBYwgTL8G_p-1">
            <mxGeometry x="0.0386" y="-28" width="240" relative="1" as="geometry">
              <mxPoint x="597" y="630" as="sourcePoint" />
              <mxPoint x="780" y="394" as="targetPoint" />
              <Array as="points">
                <mxPoint x="592" y="440" />
                <mxPoint x="559" y="440" />
              </Array>
              <mxPoint as="offset" />
            </mxGeometry>
          </mxCell>
        </object>
        <object placeholders="1" c4Type="Relationship" c4Technology="ZeroMQ" c4Description="Envio de ordem &#xa;ExecutionReport" label="&lt;div style=&quot;text-align: left&quot;&gt;&lt;div style=&quot;text-align: center&quot;&gt;&lt;b&gt;%c4Description%&lt;/b&gt;&lt;/div&gt;&lt;div style=&quot;text-align: center&quot;&gt;[%c4Technology%]&lt;/div&gt;&lt;/div&gt;" id="4d2OGvLoM_RoSxxdBMcG-14">
          <mxCell style="endArrow=blockThin;html=1;fontSize=10;fontColor=#404040;strokeWidth=2;endFill=1;strokeColor=#828282;elbow=vertical;metaEdit=1;endSize=14;startSize=14;jumpStyle=arc;jumpSize=16;rounded=1;edgeStyle=orthogonalEdgeStyle;curved=0;flowAnimation=1;shadow=1;entryX=0.5;entryY=0;entryDx=0;entryDy=0;entryPerimeter=0;exitX=0.286;exitY=0.999;exitDx=0;exitDy=0;exitPerimeter=0;" parent="1" source="NAc5xhBlYTBYwgTL8G_p-1" target="4d2OGvLoM_RoSxxdBMcG-5" edge="1">
            <mxGeometry x="-0.6787" y="-45" width="240" relative="1" as="geometry">
              <mxPoint x="462" y="394" as="sourcePoint" />
              <mxPoint x="427" y="630" as="targetPoint" />
              <Array as="points">
                <mxPoint x="481" y="430" />
                <mxPoint x="481" y="490" />
                <mxPoint x="532" y="490" />
              </Array>
              <mxPoint x="-21" y="-5" as="offset" />
            </mxGeometry>
          </mxCell>
        </object>
        <object placeholders="1" c4Type="Relationship" c4Technology="EntityFramework" c4Description="Envio de ordem status&#xa;ExecutionReport" label="&lt;div style=&quot;text-align: left; font-size: 8px;&quot;&gt;&lt;div style=&quot;text-align: center; font-size: 8px;&quot;&gt;&lt;b style=&quot;font-size: 8px;&quot;&gt;%c4Description%&lt;/b&gt;&lt;/div&gt;&lt;div style=&quot;text-align: center; font-size: 8px;&quot;&gt;[%c4Technology%]&lt;/div&gt;&lt;/div&gt;" id="4d2OGvLoM_RoSxxdBMcG-15">
          <mxCell style="endArrow=blockThin;html=1;fontSize=8;fontColor=#404040;strokeWidth=1;endFill=1;strokeColor=#828282;elbow=vertical;metaEdit=1;endSize=14;startSize=14;jumpStyle=arc;jumpSize=16;rounded=1;edgeStyle=orthogonalEdgeStyle;curved=0;exitX=-0.005;exitY=0.48;exitDx=0;exitDy=0;exitPerimeter=0;entryX=1.002;entryY=0.53;entryDx=0;entryDy=0;entryPerimeter=0;" parent="1" source="4d2OGvLoM_RoSxxdBMcG-5" target="4d2OGvLoM_RoSxxdBMcG-12" edge="1">
            <mxGeometry x="-0.1523" y="32" width="240" relative="1" as="geometry">
              <mxPoint x="424.68" y="659.02" as="sourcePoint" />
              <mxPoint x="308.00000000000006" y="694" as="targetPoint" />
              <Array as="points">
                <mxPoint x="330" y="688" />
                <mxPoint x="330" y="694" />
              </Array>
              <mxPoint as="offset" />
            </mxGeometry>
          </mxCell>
        </object>
        <object placeholders="1" c4Type="Relationship" c4Technology="Protobuf&#xa;masstransit" c4Description="Envio de ordem status&#xa;ExecutionReport" label="&lt;div style=&quot;text-align: left&quot;&gt;&lt;div style=&quot;text-align: center&quot;&gt;&lt;b&gt;%c4Description%&lt;/b&gt;&lt;/div&gt;&lt;div style=&quot;text-align: center&quot;&gt;[%c4Technology%]&lt;/div&gt;&lt;/div&gt;" id="4d2OGvLoM_RoSxxdBMcG-16">
          <mxCell style="endArrow=blockThin;html=1;fontSize=10;fontColor=#404040;strokeWidth=2;endFill=1;strokeColor=#828282;elbow=vertical;metaEdit=1;endSize=14;startSize=14;jumpStyle=arc;jumpSize=16;rounded=1;edgeStyle=orthogonalEdgeStyle;curved=0;entryX=-0.011;entryY=0.791;entryDx=0;entryDy=0;entryPerimeter=0;flowAnimation=1;shadow=1;exitX=0.25;exitY=1;exitDx=0;exitDy=0;exitPerimeter=0;" parent="1" source="4d2OGvLoM_RoSxxdBMcG-5" target="4d2OGvLoM_RoSxxdBMcG-17" edge="1">
            <mxGeometry x="0.6773" y="-40" width="240" relative="1" as="geometry">
              <mxPoint x="437" y="756" as="sourcePoint" />
              <mxPoint x="-33.25" y="802.75" as="targetPoint" />
              <Array as="points">
                <mxPoint x="437" y="766" />
                <mxPoint x="447" y="766" />
                <mxPoint x="447" y="816" />
                <mxPoint x="445" y="816" />
              </Array>
              <mxPoint as="offset" />
            </mxGeometry>
          </mxCell>
        </object>
        <object placeholders="1" c4Type="MessageBus" c4Container="Container" c4Technology="RabbitMQ - Topics/Queue" c4Description="Responsabilidade de mensageria &#xa;para Cotações, posições, order, OrderDetail, logs auditoria " label="&lt;font style=&quot;font-size: 16px&quot;&gt;&lt;b&gt;%c4Type%&lt;/b&gt;&lt;/font&gt;&lt;div&gt;[%c4Container%:&amp;nbsp;%c4Technology%]&lt;/div&gt;&lt;br&gt;&lt;div&gt;&lt;font style=&quot;font-size: 11px&quot;&gt;&lt;font color=&quot;#E6E6E6&quot;&gt;%c4Description%&lt;/font&gt;&lt;/div&gt;" id="4d2OGvLoM_RoSxxdBMcG-17">
          <mxCell style="shape=cylinder3;size=15;direction=south;whiteSpace=wrap;html=1;boundedLbl=1;rounded=0;labelBackgroundColor=none;fillColor=#FF8000;fontSize=12;fontColor=#ffffff;align=center;strokeColor=#994C00;metaEdit=1;points=[[0.5,0,0],[1,0.25,0],[1,0.5,0],[1,0.75,0],[0.5,1,0],[0,0.75,0],[0,0.5,0],[0,0.25,0]];resizable=1;rotation=0;resizeHeight=1;resizeWidth=1;" parent="1" vertex="1">
            <mxGeometry x="247" y="946" width="949" height="105" as="geometry" />
          </mxCell>
        </object>
        <object placeholders="1" c4Type="Relationship" c4Technology="Protobuf&#xa;masstransit" c4Description="Executed &#xa;Trade" label="&lt;div style=&quot;text-align: left&quot;&gt;&lt;div style=&quot;text-align: center&quot;&gt;&lt;b&gt;%c4Description%&lt;/b&gt;&lt;/div&gt;&lt;div style=&quot;text-align: center&quot;&gt;[%c4Technology%]&lt;/div&gt;&lt;/div&gt;" id="4d2OGvLoM_RoSxxdBMcG-26">
          <mxCell style="endArrow=blockThin;html=1;fontSize=10;fontColor=#404040;strokeWidth=2;endFill=1;strokeColor=#6bbdf0;elbow=vertical;metaEdit=1;endSize=14;startSize=14;jumpStyle=arc;jumpSize=16;rounded=1;edgeStyle=orthogonalEdgeStyle;curved=0;exitX=0.913;exitY=1.017;exitDx=0;exitDy=0;exitPerimeter=0;entryX=0.008;entryY=0.236;entryDx=0;entryDy=0;entryPerimeter=0;flowAnimation=1;shadow=1;" parent="1" source="4d2OGvLoM_RoSxxdBMcG-51" target="4d2OGvLoM_RoSxxdBMcG-17" edge="1">
            <mxGeometry x="-0.7597" y="-59" width="240" relative="1" as="geometry">
              <mxPoint x="717" y="706" as="sourcePoint" />
              <mxPoint x="977" y="646" as="targetPoint" />
              <Array as="points">
                <mxPoint x="896" y="796" />
                <mxPoint x="972" y="796" />
              </Array>
              <mxPoint as="offset" />
            </mxGeometry>
          </mxCell>
        </object>
        <object placeholders="1" c4Type="Relationship" c4Technology="EntityFramework" c4Description="Limit" label="&lt;div style=&quot;text-align: left; font-size: 8px;&quot;&gt;&lt;div style=&quot;text-align: center; font-size: 8px;&quot;&gt;&lt;b style=&quot;font-size: 8px;&quot;&gt;%c4Description%&lt;/b&gt;&lt;/div&gt;&lt;div style=&quot;text-align: center; font-size: 8px;&quot;&gt;[%c4Technology%]&lt;/div&gt;&lt;/div&gt;" id="4d2OGvLoM_RoSxxdBMcG-42">
          <mxCell style="endArrow=blockThin;html=1;fontSize=8;fontColor=#404040;strokeWidth=1;endFill=1;strokeColor=#828282;elbow=vertical;metaEdit=1;endSize=14;startSize=14;jumpStyle=arc;jumpSize=16;rounded=1;edgeStyle=orthogonalEdgeStyle;curved=0;exitX=0.997;exitY=0.154;exitDx=0;exitDy=0;exitPerimeter=0;entryX=0.5;entryY=0;entryDx=0;entryDy=0;entryPerimeter=0;" parent="1" edge="1">
            <mxGeometry x="-0.2935" y="-10" width="240" relative="1" as="geometry">
              <mxPoint x="376.27999999999975" y="844.48" as="sourcePoint" />
              <mxPoint x="467" y="876" as="targetPoint" />
              <Array as="points">
                <mxPoint x="387" y="845" />
                <mxPoint x="452" y="845" />
              </Array>
              <mxPoint as="offset" />
            </mxGeometry>
          </mxCell>
        </object>
        <object placeholders="1" c4Name="Settlement&#xa;Trade X Engine" c4Type="Component" c4Technology="C# BackgroundService" c4Description="Responsabilidade receber ordens e enviar eventos para o [Position]" label="&lt;font style=&quot;font-size: 16px&quot;&gt;&lt;b&gt;%c4Name%&lt;/b&gt;&lt;/font&gt;&lt;div&gt;[%c4Type%: %c4Technology%]&lt;/div&gt;&lt;br&gt;&lt;div&gt;&lt;font style=&quot;font-size: 11px&quot;&gt;%c4Description%&lt;/font&gt;&lt;/div&gt;" id="4d2OGvLoM_RoSxxdBMcG-50">
          <mxCell style="rounded=1;whiteSpace=wrap;html=1;labelBackgroundColor=none;fillColor=#63BEF2;fontColor=#ffffff;align=center;arcSize=6;strokeColor=#2086C9;metaEdit=1;resizable=0;points=[[0.25,0,0],[0.5,0,0],[0.75,0,0],[1,0.25,0],[1,0.5,0],[1,0.75,0],[0.75,1,0],[0.5,1,0],[0.25,1,0],[0,0.75,0],[0,0.5,0],[0,0.25,0]];" parent="1" vertex="1">
            <mxGeometry x="966" y="630" width="240" height="120" as="geometry" />
          </mxCell>
        </object>
        <object placeholders="1" c4Name="Book Engine" c4Type="Component" c4Technology="C# BackgroundService&#xa;FIX" c4Description="Responsabilidade de geração de &#xa;sinal de Sumary, Chart, OrderNegotiated e&#xa;Executed Trades" label="&lt;font style=&quot;font-size: 16px&quot;&gt;&lt;b&gt;%c4Name%&lt;/b&gt;&lt;/font&gt;&lt;div&gt;[%c4Type%: %c4Technology%]&lt;/div&gt;&lt;br&gt;&lt;div&gt;&lt;font style=&quot;font-size: 11px&quot;&gt;%c4Description%&lt;/font&gt;&lt;/div&gt;" id="4d2OGvLoM_RoSxxdBMcG-51">
          <mxCell style="rounded=1;whiteSpace=wrap;html=1;labelBackgroundColor=none;fillColor=#63BEF2;fontColor=#ffffff;align=center;arcSize=6;strokeColor=#2086C9;metaEdit=1;resizable=0;points=[[0.25,0,0],[0.5,0,0],[0.75,0,0],[1,0.25,0],[1,0.5,0],[1,0.75,0],[0.75,1,0],[0.5,1,0],[0.25,1,0],[0,0.75,0],[0,0.5,0],[0,0.25,0]];" parent="1" vertex="1">
            <mxGeometry x="677" y="631" width="240" height="120" as="geometry" />
          </mxCell>
        </object>
        <object placeholders="1" c4Name="Market Maker (BolsaX)" c4Type="ContainerScopeBoundary" c4Application="Container Market (BolsaX)" label="&lt;font style=&quot;font-size: 16px&quot;&gt;&lt;b&gt;&lt;div style=&quot;text-align: left&quot;&gt;%c4Name%&lt;/div&gt;&lt;/b&gt;&lt;/font&gt;&lt;div style=&quot;text-align: left&quot;&gt;[%c4Application%]&lt;/div&gt;" id="4d2OGvLoM_RoSxxdBMcG-59">
          <mxCell style="rounded=1;fontSize=11;whiteSpace=wrap;html=1;dashed=1;arcSize=20;fillColor=#e3e3e3;strokeColor=#666666;fontColor=#333333;labelBackgroundColor=none;align=left;verticalAlign=bottom;labelBorderColor=none;spacingTop=0;spacing=10;dashPattern=8 4;metaEdit=1;rotatable=0;perimeter=rectanglePerimeter;noLabel=0;labelPadding=0;allowArrows=0;connectable=0;expand=0;recursiveResize=0;editable=1;pointerEvents=0;absoluteArcSize=1;points=[[0.25,0,0],[0.5,0,0],[0.75,0,0],[1,0.25,0],[1,0.5,0],[1,0.75,0],[0.75,1,0],[0.5,1,0],[0.25,1,0],[0,0.75,0],[0,0.5,0],[0,0.25,0]];" parent="1" vertex="1">
            <mxGeometry x="1277" y="580" width="270" height="220" as="geometry" />
          </mxCell>
        </object>
        <object placeholders="1" c4Name="Market Maker Engine" c4Type="Component" c4Technology="C# BackgroundService" c4Description="Responsabilidade Gerar &#xa;Ordens para trade com um spread máximo" label="&lt;font style=&quot;font-size: 16px&quot;&gt;&lt;b&gt;%c4Name%&lt;/b&gt;&lt;/font&gt;&lt;div&gt;[%c4Type%: %c4Technology%]&lt;/div&gt;&lt;br&gt;&lt;div&gt;&lt;font style=&quot;font-size: 11px&quot;&gt;%c4Description%&lt;/font&gt;&lt;/div&gt;" id="4d2OGvLoM_RoSxxdBMcG-60">
          <mxCell style="rounded=1;whiteSpace=wrap;html=1;labelBackgroundColor=none;fillColor=#63BEF2;fontColor=#ffffff;align=center;arcSize=6;strokeColor=#2086C9;metaEdit=1;resizable=0;points=[[0.25,0,0],[0.5,0,0],[0.75,0,0],[1,0.25,0],[1,0.5,0],[1,0.75,0],[0.75,1,0],[0.5,1,0],[0.25,1,0],[0,0.75,0],[0,0.5,0],[0,0.25,0]];" parent="1" vertex="1">
            <mxGeometry x="1292" y="630" width="240" height="120" as="geometry" />
          </mxCell>
        </object>
        <object placeholders="1" c4Type="Relationship" c4Technology="FIX" c4Description="Order para &#xa;Trade" label="&lt;div style=&quot;text-align: left; font-size: 8px;&quot;&gt;&lt;div style=&quot;text-align: center; font-size: 8px;&quot;&gt;&lt;b style=&quot;font-size: 8px;&quot;&gt;%c4Description%&lt;/b&gt;&lt;/div&gt;&lt;div style=&quot;text-align: center; font-size: 8px;&quot;&gt;[%c4Technology%]&lt;/div&gt;&lt;/div&gt;" id="4d2OGvLoM_RoSxxdBMcG-61">
          <mxCell style="endArrow=blockThin;html=1;fontSize=8;fontColor=#404040;strokeWidth=2;endFill=1;strokeColor=#4a115f;elbow=vertical;metaEdit=1;endSize=14;startSize=14;jumpStyle=arc;jumpSize=16;rounded=1;edgeStyle=orthogonalEdgeStyle;curved=0;flowAnimation=1;entryX=0.5;entryY=1;entryDx=0;entryDy=0;entryPerimeter=0;shadow=1;" parent="1" target="4d2OGvLoM_RoSxxdBMcG-5" edge="1">
            <mxGeometry x="0.7259" y="-14" width="240" relative="1" as="geometry">
              <mxPoint x="1490" y="754" as="sourcePoint" />
              <mxPoint x="620" y="864" as="targetPoint" />
              <Array as="points">
                <mxPoint x="1490" y="864" />
                <mxPoint x="532" y="864" />
              </Array>
              <mxPoint as="offset" />
            </mxGeometry>
          </mxCell>
        </object>
        <object placeholders="1" c4Name="Bitstamp Index &#xa;Price X Engine" c4Type="Software System" c4Description="Bitstamp preços para &#xa;index no market maker" label="&lt;font style=&quot;font-size: 16px&quot;&gt;&lt;b&gt;%c4Name%&lt;/b&gt;&lt;/font&gt;&lt;div&gt;[%c4Type%]&lt;/div&gt;&lt;br&gt;&lt;div&gt;&lt;font style=&quot;font-size: 11px&quot;&gt;&lt;font color=&quot;#cccccc&quot;&gt;%c4Description%&lt;/font&gt;&lt;/div&gt;" id="4d2OGvLoM_RoSxxdBMcG-62">
          <mxCell style="rounded=1;whiteSpace=wrap;html=1;labelBackgroundColor=none;fillColor=#8C8496;fontColor=#ffffff;align=center;arcSize=10;strokeColor=#736782;metaEdit=1;resizable=0;points=[[0.25,0,0],[0.5,0,0],[0.75,0,0],[1,0.25,0],[1,0.5,0],[1,0.75,0],[0.75,1,0],[0.5,1,0],[0.25,1,0],[0,0.75,0],[0,0.5,0],[0,0.25,0]];" parent="1" vertex="1">
            <mxGeometry x="1620" y="694" width="240" height="120" as="geometry" />
          </mxCell>
        </object>
        <object placeholders="1" c4Type="Relationship" c4Technology="Protobuf&#xa;SignalR" c4Description="Order para &#xa;Trade" label="&lt;div style=&quot;text-align: left; font-size: 8px;&quot;&gt;&lt;div style=&quot;text-align: center; font-size: 8px;&quot;&gt;&lt;b style=&quot;font-size: 8px;&quot;&gt;%c4Description%&lt;/b&gt;&lt;/div&gt;&lt;div style=&quot;text-align: center; font-size: 8px;&quot;&gt;[%c4Technology%]&lt;/div&gt;&lt;/div&gt;" id="4d2OGvLoM_RoSxxdBMcG-63">
          <mxCell style="endArrow=blockThin;html=1;fontSize=8;fontColor=#404040;strokeWidth=5;endFill=1;strokeColor=#4a115f;elbow=vertical;metaEdit=1;endSize=14;startSize=14;jumpStyle=arc;jumpSize=16;rounded=1;edgeStyle=orthogonalEdgeStyle;curved=0;flowAnimation=1;exitX=0.25;exitY=0;exitDx=0;exitDy=0;exitPerimeter=0;entryX=1;entryY=0.667;entryDx=0;entryDy=0;entryPerimeter=0;shadow=1;" parent="1" source="4d2OGvLoM_RoSxxdBMcG-62" target="4d2OGvLoM_RoSxxdBMcG-60" edge="1">
            <mxGeometry x="-0.1215" y="27" width="240" relative="1" as="geometry">
              <mxPoint x="1627" y="637" as="sourcePoint" />
              <mxPoint x="957" y="463" as="targetPoint" />
              <Array as="points">
                <mxPoint x="1680" y="614" />
                <mxPoint x="1587" y="614" />
                <mxPoint x="1587" y="710" />
              </Array>
              <mxPoint as="offset" />
            </mxGeometry>
          </mxCell>
        </object>
        <object placeholders="1" c4Type="Relationship" c4Technology="Protobuf&#xa;masstransit" c4Description="Executed Trade &#xa;para position" label="&lt;div style=&quot;text-align: left; font-size: 8px;&quot;&gt;&lt;div style=&quot;text-align: center; font-size: 8px;&quot;&gt;&lt;b style=&quot;font-size: 8px;&quot;&gt;%c4Description%&lt;/b&gt;&lt;/div&gt;&lt;div style=&quot;text-align: center; font-size: 8px;&quot;&gt;[%c4Technology%]&lt;/div&gt;&lt;/div&gt;" id="4d2OGvLoM_RoSxxdBMcG-64">
          <mxCell style="endArrow=blockThin;html=1;fontSize=8;fontColor=#404040;strokeWidth=2;endFill=1;strokeColor=#6bbdf0;elbow=vertical;metaEdit=1;endSize=14;startSize=14;jumpStyle=arc;jumpSize=16;rounded=1;edgeStyle=orthogonalEdgeStyle;curved=0;flowAnimation=1;exitX=1.002;exitY=0.392;exitDx=0;exitDy=0;exitPerimeter=0;entryX=0.001;entryY=0.019;entryDx=0;entryDy=0;entryPerimeter=0;shadow=1;" parent="1" source="4d2OGvLoM_RoSxxdBMcG-50" target="4d2OGvLoM_RoSxxdBMcG-17" edge="1">
            <mxGeometry x="0.5599" y="20" width="240" relative="1" as="geometry">
              <mxPoint x="1163" y="833" as="sourcePoint" />
              <mxPoint x="1216" y="716" as="targetPoint" />
              <Array as="points">
                <mxPoint x="1207" y="666" />
                <mxPoint x="1237" y="666" />
                <mxPoint x="1237" y="880" />
                <mxPoint x="1178" y="880" />
              </Array>
              <mxPoint as="offset" />
            </mxGeometry>
          </mxCell>
        </object>
        <object placeholders="1" c4Type="Relationship" c4Technology="EntityFramework" c4Description="Envio de Executed Trade" label="&lt;div style=&quot;text-align: left; font-size: 8px;&quot;&gt;&lt;div style=&quot;text-align: center; font-size: 8px;&quot;&gt;&lt;b style=&quot;font-size: 8px;&quot;&gt;%c4Description%&lt;/b&gt;&lt;/div&gt;&lt;div style=&quot;text-align: center; font-size: 8px;&quot;&gt;[%c4Technology%]&lt;/div&gt;&lt;/div&gt;" id="Rv_XDdfCVXUgWfI6_WWx-2">
          <mxCell style="endArrow=blockThin;html=1;fontSize=8;fontColor=#404040;strokeWidth=1;endFill=1;strokeColor=#828282;elbow=vertical;metaEdit=1;endSize=14;startSize=14;jumpStyle=arc;jumpSize=16;rounded=1;edgeStyle=orthogonalEdgeStyle;curved=0;entryX=0.5;entryY=0;entryDx=0;entryDy=0;entryPerimeter=0;exitX=0.891;exitY=1.005;exitDx=0;exitDy=0;exitPerimeter=0;" parent="1" source="NAc5xhBlYTBYwgTL8G_p-1" target="K2TG2xPsC1KAzNVLMF0X-6" edge="1">
            <mxGeometry x="-0.4837" y="-20" width="240" relative="1" as="geometry">
              <mxPoint x="670" y="314" as="sourcePoint" />
              <mxPoint x="240" y="284" as="targetPoint" />
              <Array as="points">
                <mxPoint x="741" y="420" />
                <mxPoint x="740" y="420" />
                <mxPoint x="740" y="430" />
                <mxPoint x="810" y="430" />
              </Array>
              <mxPoint as="offset" />
            </mxGeometry>
          </mxCell>
        </object>
        <object placeholders="1" c4Type="Relationship" c4Technology="EntityFramework" c4Description="Envio de Executed Trade&#xa;depois de Liquidado" label="&lt;div style=&quot;text-align: left; font-size: 8px;&quot;&gt;&lt;div style=&quot;text-align: center; font-size: 8px;&quot;&gt;&lt;b style=&quot;font-size: 8px;&quot;&gt;%c4Description%&lt;/b&gt;&lt;/div&gt;&lt;div style=&quot;text-align: center; font-size: 8px;&quot;&gt;[%c4Technology%]&lt;/div&gt;&lt;/div&gt;" id="Rv_XDdfCVXUgWfI6_WWx-3">
          <mxCell style="endArrow=blockThin;html=1;fontSize=8;fontColor=#404040;strokeWidth=1;endFill=1;strokeColor=#828282;elbow=vertical;metaEdit=1;endSize=14;startSize=14;jumpStyle=arc;jumpSize=16;rounded=1;edgeStyle=orthogonalEdgeStyle;curved=0;exitX=0.008;exitY=0.325;exitDx=0;exitDy=0;exitPerimeter=0;entryX=0.5;entryY=1;entryDx=0;entryDy=0;entryPerimeter=0;" parent="1" target="K2TG2xPsC1KAzNVLMF0X-6" edge="1" source="4d2OGvLoM_RoSxxdBMcG-50">
            <mxGeometry x="-0.1109" y="-20" width="240" relative="1" as="geometry">
              <mxPoint x="1047" y="630" as="sourcePoint" />
              <mxPoint x="320" y="334" as="targetPoint" />
              <Array as="points">
                <mxPoint x="930" y="669" />
                <mxPoint x="930" y="610" />
                <mxPoint x="810" y="610" />
              </Array>
              <mxPoint as="offset" />
            </mxGeometry>
          </mxCell>
        </object>
        <object placeholders="1" c4Type="Relationship" c4Technology="Masstransit" c4Description="Logs&#xa;Inconsistency" label="&lt;div style=&quot;text-align: left; font-size: 8px;&quot;&gt;&lt;div style=&quot;text-align: center; font-size: 8px;&quot;&gt;&lt;b style=&quot;font-size: 8px;&quot;&gt;%c4Description%&lt;/b&gt;&lt;/div&gt;&lt;div style=&quot;text-align: center; font-size: 8px;&quot;&gt;[%c4Technology%]&lt;/div&gt;&lt;/div&gt;" id="FrLviXBLy_idEPl0Kph6-1">
          <mxCell style="endArrow=blockThin;html=1;fontSize=8;fontColor=#404040;strokeWidth=2;endFill=1;strokeColor=#828282;elbow=vertical;metaEdit=1;endSize=14;startSize=14;jumpStyle=arc;jumpSize=16;rounded=1;edgeStyle=orthogonalEdgeStyle;curved=0;flowAnimation=1;shadow=1;entryX=-0.035;entryY=0.929;entryDx=0;entryDy=0;entryPerimeter=0;" parent="1" target="4d2OGvLoM_RoSxxdBMcG-17" edge="1">
            <mxGeometry x="-0.022" y="-35" width="240" relative="1" as="geometry">
              <mxPoint x="337" y="796" as="sourcePoint" />
              <mxPoint x="-81.6550000000002" y="813.192" as="targetPoint" />
              <Array as="points">
                <mxPoint x="337" y="856" />
                <mxPoint x="314" y="856" />
              </Array>
              <mxPoint x="18" y="-30" as="offset" />
            </mxGeometry>
          </mxCell>
        </object>
        <object placeholders="1" c4Name="Matching Order X" c4Type="Component" c4Technology="C# BackgroundService&#xa;FIX" c4Description="Responsabilidade receber ordens e enviar eventos para o Position" label="&lt;font style=&quot;font-size: 16px&quot;&gt;&lt;b&gt;%c4Name%&lt;/b&gt;&lt;/font&gt;&lt;div&gt;[%c4Type%: %c4Technology%]&lt;/div&gt;&lt;br&gt;&lt;div&gt;&lt;font style=&quot;font-size: 11px&quot;&gt;%c4Description%&lt;/font&gt;&lt;/div&gt;" id="NAc5xhBlYTBYwgTL8G_p-1">
          <mxCell style="rounded=1;whiteSpace=wrap;html=1;labelBackgroundColor=none;fillColor=#63BEF2;fontColor=#ffffff;align=center;arcSize=6;strokeColor=#2086C9;metaEdit=1;resizable=0;points=[[0.25,0,0],[0.5,0,0],[0.75,0,0],[1,0.25,0],[1,0.5,0],[1,0.75,0],[0.75,1,0],[0.5,1,0],[0.25,1,0],[0,0.75,0],[0,0.5,0],[0,0.25,0]];resizeWidth=0;" parent="1" vertex="1">
            <mxGeometry x="412" y="274" width="240" height="120" as="geometry" />
          </mxCell>
        </object>
        <object placeholders="1" c4Name="MarketData X" c4Type="Component" c4Technology="C# BackgroundService&#xa;ZeroMQ" c4Description="Responsabilidade receber ordens e enviar eventos para o Position" label="&lt;font style=&quot;font-size: 16px&quot;&gt;&lt;b&gt;%c4Name%&lt;/b&gt;&lt;/font&gt;&lt;div&gt;[%c4Type%: %c4Technology%]&lt;/div&gt;&lt;br&gt;&lt;div&gt;&lt;font style=&quot;font-size: 11px&quot;&gt;%c4Description%&lt;/font&gt;&lt;/div&gt;" id="Pn2O4slC_ESlRTdy8UAc-2">
          <mxCell style="rounded=1;whiteSpace=wrap;html=1;labelBackgroundColor=none;fillColor=#63BEF2;fontColor=#ffffff;align=center;arcSize=6;strokeColor=#2086C9;metaEdit=1;resizable=0;points=[[0.25,0,0],[0.5,0,0],[0.75,0,0],[1,0.25,0],[1,0.5,0],[1,0.75,0],[0.75,1,0],[0.5,1,0],[0.25,1,0],[0,0.75,0],[0,0.5,0],[0,0.25,0]];" parent="1" vertex="1">
            <mxGeometry x="966" y="212" width="240" height="120" as="geometry" />
          </mxCell>
        </object>
        <object placeholders="1" c4Name="FixOrders" c4Type="Container" c4Technology="MongoDB" c4Description="Responsabilidade de storage&#xa; as ordens FIX abertas e parcialmente executadas  " label="&lt;font style=&quot;font-size: 11px;&quot;&gt;&lt;b style=&quot;font-size: 11px;&quot;&gt;%c4Name%&lt;/b&gt;&lt;/font&gt;&lt;div style=&quot;font-size: 11px;&quot;&gt;[%c4Type%:&amp;nbsp;%c4Technology%]&lt;/div&gt;&lt;br style=&quot;font-size: 11px;&quot;&gt;&lt;div style=&quot;font-size: 11px;&quot;&gt;&lt;font style=&quot;font-size: 11px&quot;&gt;&lt;font color=&quot;#E6E6E6&quot; style=&quot;font-size: 11px;&quot;&gt;%c4Description%&lt;/font&gt;&lt;/font&gt;&lt;/div&gt;" id="Pn2O4slC_ESlRTdy8UAc-3">
          <mxCell style="shape=cylinder3;size=15;whiteSpace=wrap;html=1;boundedLbl=1;rounded=0;labelBackgroundColor=none;fillColor=#23A2D9;fontSize=11;fontColor=#ffffff;align=center;strokeColor=#0E7DAD;metaEdit=1;points=[[0.5,0,0],[1,0.25,0],[1,0.5,0],[1,0.75,0],[0.5,1,0],[0,0.75,0],[0,0.5,0],[0,0.25,0]];resizable=1;" parent="1" vertex="1">
            <mxGeometry x="1360" y="75" width="160" height="100" as="geometry" />
          </mxCell>
        </object>
        <object placeholders="1" c4Type="Relationship" c4Technology="ZeroMQ" c4Description="Envio de &#xa;ExecutionReport" label="&lt;div style=&quot;text-align: left&quot;&gt;&lt;div style=&quot;text-align: center&quot;&gt;&lt;b&gt;%c4Description%&lt;/b&gt;&lt;/div&gt;&lt;div style=&quot;text-align: center&quot;&gt;[%c4Technology%]&lt;/div&gt;&lt;/div&gt;" id="Pn2O4slC_ESlRTdy8UAc-4">
          <mxCell style="endArrow=blockThin;html=1;fontSize=10;fontColor=#404040;strokeWidth=2;endFill=1;strokeColor=#828282;elbow=vertical;metaEdit=1;endSize=14;startSize=14;jumpStyle=arc;jumpSize=16;rounded=1;edgeStyle=orthogonalEdgeStyle;curved=0;flowAnimation=1;shadow=1;exitX=1;exitY=0.25;exitDx=0;exitDy=0;exitPerimeter=0;entryX=0.008;entryY=0.358;entryDx=0;entryDy=0;entryPerimeter=0;" parent="1" source="NAc5xhBlYTBYwgTL8G_p-1" edge="1">
            <mxGeometry x="-0.2247" y="-19" width="240" relative="1" as="geometry">
              <mxPoint x="860" y="394" as="sourcePoint" />
              <mxPoint x="967.9200000000001" y="264.96000000000004" as="targetPoint" />
              <Array as="points">
                <mxPoint x="860" y="304" />
                <mxPoint x="860" y="265" />
              </Array>
              <mxPoint x="-9" y="16" as="offset" />
            </mxGeometry>
          </mxCell>
        </object>
        <object placeholders="1" c4Type="Relationship" c4Technology="ZeroMQ" c4Description="Envio de &#xa;ExecutionReport" label="&lt;div style=&quot;text-align: left&quot;&gt;&lt;div style=&quot;text-align: center&quot;&gt;&lt;b&gt;%c4Description%&lt;/b&gt;&lt;/div&gt;&lt;div style=&quot;text-align: center&quot;&gt;[%c4Technology%]&lt;/div&gt;&lt;/div&gt;" id="Pn2O4slC_ESlRTdy8UAc-5">
          <mxCell style="endArrow=blockThin;html=1;fontSize=10;fontColor=#404040;strokeWidth=2;endFill=1;strokeColor=#828282;elbow=vertical;metaEdit=1;endSize=14;startSize=14;jumpStyle=arc;jumpSize=16;rounded=1;edgeStyle=orthogonalEdgeStyle;curved=0;flowAnimation=1;shadow=1;exitX=0.796;exitY=-0.01;exitDx=0;exitDy=0;exitPerimeter=0;entryX=0;entryY=0.5;entryDx=0;entryDy=0;entryPerimeter=0;" parent="1" source="NAc5xhBlYTBYwgTL8G_p-1" target="K2TG2xPsC1KAzNVLMF0X-10" edge="1">
            <mxGeometry x="0.5341" y="-25" width="240" relative="1" as="geometry">
              <mxPoint x="921" y="404" as="sourcePoint" />
              <mxPoint x="1290" y="384" as="targetPoint" />
              <Array as="points">
                <mxPoint x="603" y="110" />
              </Array>
              <mxPoint as="offset" />
            </mxGeometry>
          </mxCell>
        </object>
        <object placeholders="1" c4Name="FiX &#xa;Authentication" c4Type="Container" c4Technology="MongoDB" c4Description="Responsabilidade de storage&#xa; as ordens FIX abertas e parcialmente executadas  " label="&lt;font style=&quot;font-size: 11px;&quot;&gt;&lt;b style=&quot;font-size: 11px;&quot;&gt;%c4Name%&lt;/b&gt;&lt;/font&gt;&lt;div style=&quot;font-size: 11px;&quot;&gt;[%c4Type%:&amp;nbsp;%c4Technology%]&lt;/div&gt;&lt;br style=&quot;font-size: 11px;&quot;&gt;&lt;div style=&quot;font-size: 11px;&quot;&gt;&lt;font style=&quot;font-size: 11px&quot;&gt;&lt;font color=&quot;#E6E6E6&quot; style=&quot;font-size: 11px;&quot;&gt;%c4Description%&lt;/font&gt;&lt;/font&gt;&lt;/div&gt;" id="K2TG2xPsC1KAzNVLMF0X-2">
          <mxCell style="shape=cylinder3;size=15;whiteSpace=wrap;html=1;boundedLbl=1;rounded=0;labelBackgroundColor=none;fillColor=#23A2D9;fontSize=11;fontColor=#ffffff;align=center;strokeColor=#0E7DAD;metaEdit=1;points=[[0.5,0,0],[1,0.25,0],[1,0.5,0],[1,0.75,0],[0.5,1,0],[0,0.75,0],[0,0.5,0],[0,0.25,0]];resizable=1;" vertex="1" parent="1">
            <mxGeometry x="1360" y="232" width="160" height="100" as="geometry" />
          </mxCell>
        </object>
        <object placeholders="1" c4Name="OrderEntry X" c4Type="Component" c4Technology="C# BackgroundService&#xa;ZeroMQ" c4Description="Responsabilidade receber ordens e enviar eventos para o Position" label="&lt;font style=&quot;font-size: 16px&quot;&gt;&lt;b&gt;%c4Name%&lt;/b&gt;&lt;/font&gt;&lt;div&gt;[%c4Type%: %c4Technology%]&lt;/div&gt;&lt;br&gt;&lt;div&gt;&lt;font style=&quot;font-size: 11px&quot;&gt;%c4Description%&lt;/font&gt;&lt;/div&gt;" id="K2TG2xPsC1KAzNVLMF0X-4">
          <mxCell style="rounded=1;whiteSpace=wrap;html=1;labelBackgroundColor=none;fillColor=#63BEF2;fontColor=#ffffff;align=center;arcSize=6;strokeColor=#2086C9;metaEdit=1;resizable=0;points=[[0.25,0,0],[0.5,0,0],[0.75,0,0],[1,0.25,0],[1,0.5,0],[1,0.75,0],[0.75,1,0],[0.5,1,0],[0.25,1,0],[0,0.75,0],[0,0.5,0],[0,0.25,0]];" vertex="1" parent="1">
            <mxGeometry x="966" y="384" width="240" height="120" as="geometry" />
          </mxCell>
        </object>
        <object placeholders="1" c4Type="Relationship" c4Technology="ZeroMQ" c4Description="Envio de &#xa;ExecutionReport" label="&lt;div style=&quot;text-align: left&quot;&gt;&lt;div style=&quot;text-align: center&quot;&gt;&lt;b&gt;%c4Description%&lt;/b&gt;&lt;/div&gt;&lt;div style=&quot;text-align: center&quot;&gt;[%c4Technology%]&lt;/div&gt;&lt;/div&gt;" id="K2TG2xPsC1KAzNVLMF0X-5">
          <mxCell style="endArrow=blockThin;html=1;fontSize=10;fontColor=#404040;strokeWidth=2;endFill=1;strokeColor=#828282;elbow=vertical;metaEdit=1;endSize=14;startSize=14;jumpStyle=arc;jumpSize=16;rounded=1;edgeStyle=orthogonalEdgeStyle;curved=0;flowAnimation=1;shadow=1;entryX=0.997;entryY=0.815;entryDx=0;entryDy=0;entryPerimeter=0;" edge="1" parent="1" target="NAc5xhBlYTBYwgTL8G_p-1">
            <mxGeometry x="-0.2644" y="-30" width="240" relative="1" as="geometry">
              <mxPoint x="970" y="440" as="sourcePoint" />
              <mxPoint x="978" y="275" as="targetPoint" />
              <Array as="points">
                <mxPoint x="840" y="440" />
                <mxPoint x="840" y="372" />
              </Array>
              <mxPoint as="offset" />
            </mxGeometry>
          </mxCell>
        </object>
        <object placeholders="1" c4Name="Executed &#xa;Trade X" c4Type="Container" c4Technology="Postgree" c4Description="Responsabilidade de storage&#xa;Executed Trades" label="&lt;font style=&quot;font-size: 11px;&quot;&gt;&lt;b style=&quot;font-size: 11px;&quot;&gt;%c4Name%&lt;/b&gt;&lt;/font&gt;&lt;div style=&quot;font-size: 11px;&quot;&gt;[%c4Type%:&amp;nbsp;%c4Technology%]&lt;/div&gt;&lt;br style=&quot;font-size: 11px;&quot;&gt;&lt;div style=&quot;font-size: 11px;&quot;&gt;&lt;font style=&quot;font-size: 11px&quot;&gt;&lt;font color=&quot;#E6E6E6&quot; style=&quot;font-size: 11px;&quot;&gt;%c4Description%&lt;/font&gt;&lt;/font&gt;&lt;/div&gt;" id="K2TG2xPsC1KAzNVLMF0X-6">
          <mxCell style="shape=cylinder3;size=15;whiteSpace=wrap;html=1;boundedLbl=1;rounded=0;labelBackgroundColor=none;fillColor=#23A2D9;fontSize=11;fontColor=#ffffff;align=center;strokeColor=#0E7DAD;metaEdit=1;points=[[0.5,0,0],[1,0.25,0],[1,0.5,0],[1,0.75,0],[0.5,1,0],[0,0.75,0],[0,0.5,0],[0,0.25,0]];resizable=1;" vertex="1" parent="1">
            <mxGeometry x="730" y="464" width="160" height="100" as="geometry" />
          </mxCell>
        </object>
        <object placeholders="1" c4Type="Relationship" c4Technology="EntityFramework" c4Description="Fix&#xa;Authentication" label="&lt;div style=&quot;text-align: left; font-size: 8px;&quot;&gt;&lt;div style=&quot;text-align: center; font-size: 8px;&quot;&gt;&lt;b style=&quot;font-size: 8px;&quot;&gt;%c4Description%&lt;/b&gt;&lt;/div&gt;&lt;div style=&quot;text-align: center; font-size: 8px;&quot;&gt;[%c4Technology%]&lt;/div&gt;&lt;/div&gt;" id="K2TG2xPsC1KAzNVLMF0X-7">
          <mxCell style="endArrow=blockThin;html=1;fontSize=8;fontColor=#404040;strokeWidth=1;endFill=1;strokeColor=#828282;elbow=vertical;metaEdit=1;endSize=14;startSize=14;jumpStyle=arc;jumpSize=16;rounded=1;edgeStyle=orthogonalEdgeStyle;curved=0;entryX=0;entryY=0.5;entryDx=0;entryDy=0;entryPerimeter=0;exitX=0.996;exitY=0.383;exitDx=0;exitDy=0;exitPerimeter=0;" edge="1" parent="1" target="K2TG2xPsC1KAzNVLMF0X-2">
            <mxGeometry x="-0.3195" y="-20" width="240" relative="1" as="geometry">
              <mxPoint x="1205.04" y="267.96000000000004" as="sourcePoint" />
              <mxPoint x="1280" y="331.5" as="targetPoint" />
              <Array as="points">
                <mxPoint x="1205" y="270" />
                <mxPoint x="1260" y="270" />
                <mxPoint x="1260" y="282" />
              </Array>
              <mxPoint as="offset" />
            </mxGeometry>
          </mxCell>
        </object>
        <object placeholders="1" c4Type="Relationship" c4Technology="EntityFramework" c4Description="Fix&#xa;Authentication" label="&lt;div style=&quot;text-align: left; font-size: 8px;&quot;&gt;&lt;div style=&quot;text-align: center; font-size: 8px;&quot;&gt;&lt;b style=&quot;font-size: 8px;&quot;&gt;%c4Description%&lt;/b&gt;&lt;/div&gt;&lt;div style=&quot;text-align: center; font-size: 8px;&quot;&gt;[%c4Technology%]&lt;/div&gt;&lt;/div&gt;" id="K2TG2xPsC1KAzNVLMF0X-9">
          <mxCell style="endArrow=blockThin;html=1;fontSize=8;fontColor=#404040;strokeWidth=1;endFill=1;strokeColor=#828282;elbow=vertical;metaEdit=1;endSize=14;startSize=14;jumpStyle=arc;jumpSize=16;rounded=1;edgeStyle=orthogonalEdgeStyle;curved=0;exitX=0.996;exitY=0.383;exitDx=0;exitDy=0;exitPerimeter=0;" edge="1" parent="1">
            <mxGeometry x="-0.3195" y="-20" width="240" relative="1" as="geometry">
              <mxPoint x="1205" y="450" as="sourcePoint" />
              <mxPoint x="1360" y="300" as="targetPoint" />
              <Array as="points">
                <mxPoint x="1205" y="452" />
                <mxPoint x="1280" y="452" />
                <mxPoint x="1280" y="300" />
              </Array>
              <mxPoint as="offset" />
            </mxGeometry>
          </mxCell>
        </object>
        <object placeholders="1" c4Name="DropCopy X" c4Type="Component" c4Technology="C# BackgroundService&#xa;ZeroMQ" c4Description="Responsabilidade receber ordens e enviar eventos para o Position" label="&lt;font style=&quot;font-size: 16px&quot;&gt;&lt;b&gt;%c4Name%&lt;/b&gt;&lt;/font&gt;&lt;div&gt;[%c4Type%: %c4Technology%]&lt;/div&gt;&lt;br&gt;&lt;div&gt;&lt;font style=&quot;font-size: 11px&quot;&gt;%c4Description%&lt;/font&gt;&lt;/div&gt;" id="K2TG2xPsC1KAzNVLMF0X-10">
          <mxCell style="rounded=1;whiteSpace=wrap;html=1;labelBackgroundColor=none;fillColor=#63BEF2;fontColor=#ffffff;align=center;arcSize=6;strokeColor=#2086C9;metaEdit=1;resizable=0;points=[[0.25,0,0],[0.5,0,0],[0.75,0,0],[1,0.25,0],[1,0.5,0],[1,0.75,0],[0.75,1,0],[0.5,1,0],[0.25,1,0],[0,0.75,0],[0,0.5,0],[0,0.25,0]];" vertex="1" parent="1">
            <mxGeometry x="966" y="50" width="240" height="120" as="geometry" />
          </mxCell>
        </object>
        <object placeholders="1" c4Type="Relationship" c4Technology="EntityFramework" c4Description="Fix&#xa;Order status&#xa;[Recover]" label="&lt;div style=&quot;text-align: left; font-size: 8px;&quot;&gt;&lt;div style=&quot;text-align: center; font-size: 8px;&quot;&gt;&lt;b style=&quot;font-size: 8px;&quot;&gt;%c4Description%&lt;/b&gt;&lt;/div&gt;&lt;div style=&quot;text-align: center; font-size: 8px;&quot;&gt;[%c4Technology%]&lt;/div&gt;&lt;/div&gt;" id="K2TG2xPsC1KAzNVLMF0X-12">
          <mxCell style="endArrow=blockThin;html=1;fontSize=8;fontColor=#404040;strokeWidth=1;endFill=1;strokeColor=#828282;elbow=vertical;metaEdit=1;endSize=14;startSize=14;jumpStyle=arc;jumpSize=16;rounded=1;edgeStyle=orthogonalEdgeStyle;curved=0;exitX=1;exitY=0.75;exitDx=0;exitDy=0;exitPerimeter=0;" edge="1" parent="1">
            <mxGeometry x="-0.7606" y="10" width="240" relative="1" as="geometry">
              <mxPoint x="1206" y="82" as="sourcePoint" />
              <mxPoint x="1360" y="130" as="targetPoint" />
              <Array as="points">
                <mxPoint x="1280" y="82" />
                <mxPoint x="1280" y="130" />
              </Array>
              <mxPoint as="offset" />
            </mxGeometry>
          </mxCell>
        </object>
        <object placeholders="1" c4Type="Relationship" c4Technology="EntityFramework" c4Description="Orders para recover" label="&lt;div style=&quot;text-align: left; font-size: 8px;&quot;&gt;&lt;div style=&quot;text-align: center; font-size: 8px;&quot;&gt;&lt;b style=&quot;font-size: 8px;&quot;&gt;%c4Description%&lt;/b&gt;&lt;/div&gt;&lt;div style=&quot;text-align: center; font-size: 8px;&quot;&gt;[%c4Technology%]&lt;/div&gt;&lt;/div&gt;" id="K2TG2xPsC1KAzNVLMF0X-13">
          <mxCell style="endArrow=blockThin;html=1;fontSize=8;fontColor=#404040;strokeWidth=1;endFill=1;strokeColor=#828282;elbow=vertical;metaEdit=1;endSize=14;startSize=14;jumpStyle=arc;jumpSize=16;rounded=1;edgeStyle=orthogonalEdgeStyle;curved=0;exitX=0.5;exitY=0;exitDx=0;exitDy=0;exitPerimeter=0;" edge="1" parent="1" source="4d2OGvLoM_RoSxxdBMcG-12">
            <mxGeometry x="-0.1523" y="32" width="240" relative="1" as="geometry">
              <mxPoint x="240" y="570" as="sourcePoint" />
              <mxPoint x="410" y="320" as="targetPoint" />
              <Array as="points">
                <mxPoint x="217" y="320" />
              </Array>
              <mxPoint as="offset" />
            </mxGeometry>
          </mxCell>
        </object>
        <object placeholders="1" c4Name="Sistema de Exchanges &#xa;externas" c4Type="Software System" c4Description="Sistema externo&#xa;Com interface FIX" label="&lt;font style=&quot;font-size: 16px&quot;&gt;&lt;b&gt;%c4Name%&lt;/b&gt;&lt;/font&gt;&lt;div&gt;[%c4Type%]&lt;/div&gt;&lt;br&gt;&lt;div&gt;&lt;font style=&quot;font-size: 11px&quot;&gt;&lt;font color=&quot;#cccccc&quot;&gt;%c4Description%&lt;/font&gt;&lt;/div&gt;" id="K2TG2xPsC1KAzNVLMF0X-14">
          <mxCell style="rounded=1;whiteSpace=wrap;html=1;labelBackgroundColor=none;fillColor=#8C8496;fontColor=#ffffff;align=center;arcSize=10;strokeColor=#736782;metaEdit=1;resizable=0;points=[[0.25,0,0],[0.5,0,0],[0.75,0,0],[1,0.25,0],[1,0.5,0],[1,0.75,0],[0.75,1,0],[0.5,1,0],[0.25,1,0],[0,0.75,0],[0,0.5,0],[0,0.25,0]];" vertex="1" parent="1">
            <mxGeometry x="1620" y="370" width="240" height="120" as="geometry" />
          </mxCell>
        </object>
        <object placeholders="1" c4Type="Relationship" c4Technology="FIX" c4Description="Order para &#xa;Trade" label="&lt;div style=&quot;text-align: left; font-size: 8px;&quot;&gt;&lt;div style=&quot;text-align: center; font-size: 8px;&quot;&gt;&lt;b style=&quot;font-size: 8px;&quot;&gt;%c4Description%&lt;/b&gt;&lt;/div&gt;&lt;div style=&quot;text-align: center; font-size: 8px;&quot;&gt;[%c4Technology%]&lt;/div&gt;&lt;/div&gt;" id="K2TG2xPsC1KAzNVLMF0X-15">
          <mxCell style="endArrow=blockThin;html=1;fontSize=8;fontColor=#404040;strokeWidth=5;endFill=1;strokeColor=#8c8496;elbow=vertical;metaEdit=1;endSize=14;startSize=14;jumpStyle=arc;jumpSize=16;rounded=1;edgeStyle=orthogonalEdgeStyle;curved=0;flowAnimation=1;exitX=0.5;exitY=1;exitDx=0;exitDy=0;exitPerimeter=0;shadow=1;" edge="1" parent="1" source="K2TG2xPsC1KAzNVLMF0X-14">
            <mxGeometry x="-0.6426" y="30" width="240" relative="1" as="geometry">
              <mxPoint x="1619.96" y="442" as="sourcePoint" />
              <mxPoint x="1550" y="460" as="targetPoint" />
              <Array as="points">
                <mxPoint x="1740" y="520" />
                <mxPoint x="1590" y="520" />
                <mxPoint x="1590" y="460" />
              </Array>
              <mxPoint as="offset" />
            </mxGeometry>
          </mxCell>
        </object>
        <object placeholders="1" c4Type="Relationship" c4Technology="EntityFramework" c4Description="Fix&#xa;Order status&#xa;[Recover]" label="&lt;div style=&quot;text-align: left; font-size: 8px;&quot;&gt;&lt;div style=&quot;text-align: center; font-size: 8px;&quot;&gt;&lt;b style=&quot;font-size: 8px;&quot;&gt;%c4Description%&lt;/b&gt;&lt;/div&gt;&lt;div style=&quot;text-align: center; font-size: 8px;&quot;&gt;[%c4Technology%]&lt;/div&gt;&lt;/div&gt;" id="K2TG2xPsC1KAzNVLMF0X-16">
          <mxCell style="endArrow=blockThin;html=1;fontSize=8;fontColor=#404040;strokeWidth=1;endFill=1;strokeColor=#828282;elbow=vertical;metaEdit=1;endSize=14;startSize=14;jumpStyle=arc;jumpSize=16;rounded=1;edgeStyle=orthogonalEdgeStyle;curved=0;exitX=1;exitY=0.25;exitDx=0;exitDy=0;exitPerimeter=0;" edge="1" parent="1" source="Pn2O4slC_ESlRTdy8UAc-2">
            <mxGeometry x="-0.4635" y="20" width="240" relative="1" as="geometry">
              <mxPoint x="1230" y="200" as="sourcePoint" />
              <mxPoint x="1360" y="140" as="targetPoint" />
              <Array as="points">
                <mxPoint x="1250" y="242" />
                <mxPoint x="1250" y="200" />
                <mxPoint x="1290" y="200" />
                <mxPoint x="1290" y="140" />
              </Array>
              <mxPoint as="offset" />
            </mxGeometry>
          </mxCell>
        </object>
        <object placeholders="1" c4Type="Relationship" c4Technology="EntityFramework" c4Description="Fix&#xa;Authentication" label="&lt;div style=&quot;text-align: left; font-size: 8px;&quot;&gt;&lt;div style=&quot;text-align: center; font-size: 8px;&quot;&gt;&lt;b style=&quot;font-size: 8px;&quot;&gt;%c4Description%&lt;/b&gt;&lt;/div&gt;&lt;div style=&quot;text-align: center; font-size: 8px;&quot;&gt;[%c4Technology%]&lt;/div&gt;&lt;/div&gt;" id="K2TG2xPsC1KAzNVLMF0X-8">
          <mxCell style="endArrow=blockThin;html=1;fontSize=8;fontColor=#404040;strokeWidth=1;endFill=1;strokeColor=#828282;elbow=vertical;metaEdit=1;endSize=14;startSize=14;jumpStyle=arc;jumpSize=16;rounded=1;edgeStyle=orthogonalEdgeStyle;curved=0;exitX=1;exitY=0.75;exitDx=0;exitDy=0;exitPerimeter=0;" edge="1" parent="1" source="K2TG2xPsC1KAzNVLMF0X-10">
            <mxGeometry x="-0.831" y="-20" width="240" relative="1" as="geometry">
              <mxPoint x="1205" y="90" as="sourcePoint" />
              <mxPoint x="1360" y="270" as="targetPoint" />
              <Array as="points">
                <mxPoint x="1280" y="140" />
                <mxPoint x="1280" y="270" />
              </Array>
              <mxPoint as="offset" />
            </mxGeometry>
          </mxCell>
        </object>
        <object placeholders="1" c4Type="Relationship" c4Technology="FIX" c4Description="Marketdate e &#xa;dropcopy" label="&lt;div style=&quot;text-align: left; font-size: 8px;&quot;&gt;&lt;div style=&quot;text-align: center; font-size: 8px;&quot;&gt;&lt;b style=&quot;font-size: 8px;&quot;&gt;%c4Description%&lt;/b&gt;&lt;/div&gt;&lt;div style=&quot;text-align: center; font-size: 8px;&quot;&gt;[%c4Technology%]&lt;/div&gt;&lt;/div&gt;" id="K2TG2xPsC1KAzNVLMF0X-17">
          <mxCell style="endArrow=blockThin;html=1;fontSize=8;fontColor=#404040;strokeWidth=5;endFill=1;strokeColor=#8c8496;elbow=vertical;metaEdit=1;endSize=14;startSize=14;jumpStyle=arc;jumpSize=16;rounded=1;edgeStyle=orthogonalEdgeStyle;curved=0;flowAnimation=1;entryX=0.5;entryY=0;entryDx=0;entryDy=0;entryPerimeter=0;shadow=1;" edge="1" parent="1" target="K2TG2xPsC1KAzNVLMF0X-14">
            <mxGeometry x="0.4051" y="30" width="240" relative="1" as="geometry">
              <mxPoint x="1550" y="390" as="sourcePoint" />
              <mxPoint x="1357" y="350" as="targetPoint" />
              <Array as="points">
                <mxPoint x="1570" y="390" />
                <mxPoint x="1570" y="310" />
                <mxPoint x="1740" y="310" />
              </Array>
              <mxPoint as="offset" />
            </mxGeometry>
          </mxCell>
        </object>
      </root>
    </mxGraphModel>
  </diagram>
</mxfile>
